<mxfile host="app.diagrams.net" modified="2022-12-10T20:18:59.719Z" agent="5.0 (Windows)" etag="WU3yZzGjQXd-eTsucdfI" version="20.2.7" type="github" pages="2">
  <diagram name="ESP Node" id="c7558073-3199-34d8-9f00-42111426c3f3">
    <mxGraphModel dx="2062" dy="780" grid="1" gridSize="10" guides="1" tooltips="1" connect="1" arrows="1" fold="1" page="1" pageScale="1" pageWidth="826" pageHeight="1169" background="none" math="0" shadow="0">
      <root>
        <mxCell id="0" />
        <mxCell id="1" parent="0" />
        <mxCell id="GIicMz4sCmZAJAu6LZuT-5" style="edgeStyle=orthogonalEdgeStyle;rounded=0;orthogonalLoop=1;jettySize=auto;html=1;exitX=1;exitY=0.5;exitDx=0;exitDy=0;entryX=0;entryY=0.5;entryDx=0;entryDy=0;fontSize=18;" edge="1" parent="1" source="GIicMz4sCmZAJAu6LZuT-3" target="GIicMz4sCmZAJAu6LZuT-4">
          <mxGeometry relative="1" as="geometry" />
        </mxCell>
        <mxCell id="GIicMz4sCmZAJAu6LZuT-7" style="edgeStyle=orthogonalEdgeStyle;rounded=0;orthogonalLoop=1;jettySize=auto;html=1;exitX=0.5;exitY=1;exitDx=0;exitDy=0;entryX=0;entryY=0.5;entryDx=0;entryDy=0;fontSize=18;" edge="1" parent="1" source="GIicMz4sCmZAJAu6LZuT-3" target="GIicMz4sCmZAJAu6LZuT-6">
          <mxGeometry relative="1" as="geometry" />
        </mxCell>
        <mxCell id="GIicMz4sCmZAJAu6LZuT-3" value="Init Node Name" style="rounded=1;whiteSpace=wrap;html=1;fontSize=18;fillColor=#dae8fc;gradientColor=#7ea6e0;strokeColor=#6c8ebf;" vertex="1" parent="1">
          <mxGeometry x="60" y="380" width="120" height="60" as="geometry" />
        </mxCell>
        <mxCell id="GIicMz4sCmZAJAu6LZuT-11" style="edgeStyle=orthogonalEdgeStyle;rounded=0;orthogonalLoop=1;jettySize=auto;html=1;exitX=1;exitY=0.5;exitDx=0;exitDy=0;entryX=0.5;entryY=0;entryDx=0;entryDy=0;fontSize=18;" edge="1" parent="1" source="GIicMz4sCmZAJAu6LZuT-4" target="GIicMz4sCmZAJAu6LZuT-9">
          <mxGeometry relative="1" as="geometry" />
        </mxCell>
        <mxCell id="GIicMz4sCmZAJAu6LZuT-4" value="Init Publisher Service - &quot;current_position&quot;" style="rounded=1;whiteSpace=wrap;html=1;fontSize=18;fillColor=#dae8fc;gradientColor=#7ea6e0;strokeColor=#6c8ebf;" vertex="1" parent="1">
          <mxGeometry x="250" y="360" width="170" height="100" as="geometry" />
        </mxCell>
        <mxCell id="GIicMz4sCmZAJAu6LZuT-28" style="edgeStyle=orthogonalEdgeStyle;rounded=0;orthogonalLoop=1;jettySize=auto;html=1;exitX=1;exitY=0.5;exitDx=0;exitDy=0;entryX=0;entryY=0.5;entryDx=0;entryDy=0;fontSize=18;" edge="1" parent="1" source="GIicMz4sCmZAJAu6LZuT-6" target="GIicMz4sCmZAJAu6LZuT-27">
          <mxGeometry relative="1" as="geometry" />
        </mxCell>
        <mxCell id="GIicMz4sCmZAJAu6LZuT-6" value="Init Subscriber Service - &quot;gcode_feeder&quot;" style="rounded=1;whiteSpace=wrap;html=1;fontSize=18;fillColor=#dae8fc;gradientColor=#7ea6e0;strokeColor=#6c8ebf;" vertex="1" parent="1">
          <mxGeometry x="170" y="485" width="170" height="100" as="geometry" />
        </mxCell>
        <mxCell id="GIicMz4sCmZAJAu6LZuT-12" style="edgeStyle=orthogonalEdgeStyle;rounded=0;orthogonalLoop=1;jettySize=auto;html=1;exitX=1;exitY=0.5;exitDx=0;exitDy=0;fontSize=18;entryX=0;entryY=0.5;entryDx=0;entryDy=0;" edge="1" parent="1" source="GIicMz4sCmZAJAu6LZuT-9" target="GIicMz4sCmZAJAu6LZuT-13">
          <mxGeometry relative="1" as="geometry">
            <mxPoint x="780" y="465" as="targetPoint" />
          </mxGeometry>
        </mxCell>
        <mxCell id="GIicMz4sCmZAJAu6LZuT-9" value="Start Worker for : queueSerial()" style="rounded=1;whiteSpace=wrap;html=1;fontSize=18;fillColor=#dae8fc;gradientColor=#7ea6e0;strokeColor=#6c8ebf;" vertex="1" parent="1">
          <mxGeometry x="550" y="430" width="150" height="70" as="geometry" />
        </mxCell>
        <mxCell id="GIicMz4sCmZAJAu6LZuT-14" style="edgeStyle=orthogonalEdgeStyle;rounded=0;orthogonalLoop=1;jettySize=auto;html=1;exitX=1;exitY=0.5;exitDx=0;exitDy=0;fontSize=18;entryX=0.5;entryY=1;entryDx=0;entryDy=0;" edge="1" parent="1" source="GIicMz4sCmZAJAu6LZuT-13" target="GIicMz4sCmZAJAu6LZuT-13">
          <mxGeometry relative="1" as="geometry">
            <mxPoint x="920" y="540" as="targetPoint" />
            <Array as="points">
              <mxPoint x="940" y="465" />
              <mxPoint x="940" y="560" />
              <mxPoint x="805" y="560" />
            </Array>
          </mxGeometry>
        </mxCell>
        <mxCell id="GIicMz4sCmZAJAu6LZuT-13" value="Publish current machine status from class" style="rounded=1;whiteSpace=wrap;html=1;fontSize=18;fillColor=#dae8fc;gradientColor=#7ea6e0;strokeColor=#6c8ebf;" vertex="1" parent="1">
          <mxGeometry x="730" y="430" width="150" height="70" as="geometry" />
        </mxCell>
        <mxCell id="GIicMz4sCmZAJAu6LZuT-16" style="edgeStyle=orthogonalEdgeStyle;rounded=0;orthogonalLoop=1;jettySize=auto;html=1;exitX=1;exitY=0.5;exitDx=0;exitDy=0;fontSize=18;entryX=0;entryY=0.5;entryDx=0;entryDy=0;" edge="1" parent="1" source="GIicMz4sCmZAJAu6LZuT-15" target="GIicMz4sCmZAJAu6LZuT-18">
          <mxGeometry relative="1" as="geometry">
            <mxPoint x="310" y="690" as="targetPoint" />
          </mxGeometry>
        </mxCell>
        <mxCell id="GIicMz4sCmZAJAu6LZuT-15" value="Init queueSerial()" style="rounded=1;whiteSpace=wrap;html=1;fontSize=18;fillColor=#d5e8d4;gradientColor=#97d077;strokeColor=#82b366;" vertex="1" parent="1">
          <mxGeometry x="60" y="660" width="120" height="60" as="geometry" />
        </mxCell>
        <mxCell id="GIicMz4sCmZAJAu6LZuT-19" style="edgeStyle=orthogonalEdgeStyle;rounded=0;orthogonalLoop=1;jettySize=auto;html=1;exitX=1;exitY=0.5;exitDx=0;exitDy=0;fontSize=18;entryX=0;entryY=0.5;entryDx=0;entryDy=0;" edge="1" parent="1" source="GIicMz4sCmZAJAu6LZuT-18" target="GIicMz4sCmZAJAu6LZuT-23">
          <mxGeometry relative="1" as="geometry">
            <mxPoint x="690" y="690" as="targetPoint" />
          </mxGeometry>
        </mxCell>
        <mxCell id="GIicMz4sCmZAJAu6LZuT-22" value="Command received" style="edgeLabel;html=1;align=center;verticalAlign=middle;resizable=0;points=[];fontSize=18;" vertex="1" connectable="0" parent="GIicMz4sCmZAJAu6LZuT-19">
          <mxGeometry x="-0.2485" y="-1" relative="1" as="geometry">
            <mxPoint x="22" y="-1" as="offset" />
          </mxGeometry>
        </mxCell>
        <mxCell id="GIicMz4sCmZAJAu6LZuT-18" value="Read Command from Serial Buffer" style="rounded=1;whiteSpace=wrap;html=1;fontSize=18;fillColor=#d5e8d4;gradientColor=#97d077;strokeColor=#82b366;" vertex="1" parent="1">
          <mxGeometry x="255" y="645" width="160" height="90" as="geometry" />
        </mxCell>
        <mxCell id="GIicMz4sCmZAJAu6LZuT-20" style="edgeStyle=orthogonalEdgeStyle;rounded=0;orthogonalLoop=1;jettySize=auto;html=1;exitX=1;exitY=0;exitDx=0;exitDy=0;entryX=0;entryY=0;entryDx=0;entryDy=0;fontSize=18;" edge="1" parent="1" source="GIicMz4sCmZAJAu6LZuT-18" target="GIicMz4sCmZAJAu6LZuT-18">
          <mxGeometry relative="1" as="geometry">
            <Array as="points">
              <mxPoint x="415" y="610" />
              <mxPoint x="255" y="610" />
            </Array>
          </mxGeometry>
        </mxCell>
        <mxCell id="GIicMz4sCmZAJAu6LZuT-21" value="No Command" style="edgeLabel;html=1;align=center;verticalAlign=middle;resizable=0;points=[];fontSize=18;" vertex="1" connectable="0" parent="GIicMz4sCmZAJAu6LZuT-20">
          <mxGeometry x="0.2276" y="3" relative="1" as="geometry">
            <mxPoint x="26" y="-3" as="offset" />
          </mxGeometry>
        </mxCell>
        <mxCell id="GIicMz4sCmZAJAu6LZuT-25" style="edgeStyle=orthogonalEdgeStyle;rounded=0;orthogonalLoop=1;jettySize=auto;html=1;exitX=0.5;exitY=1;exitDx=0;exitDy=0;entryX=0.5;entryY=0;entryDx=0;entryDy=0;fontSize=18;" edge="1" parent="1" source="GIicMz4sCmZAJAu6LZuT-23" target="GIicMz4sCmZAJAu6LZuT-24">
          <mxGeometry relative="1" as="geometry" />
        </mxCell>
        <mxCell id="GIicMz4sCmZAJAu6LZuT-23" value="Read Command and parse" style="rounded=1;whiteSpace=wrap;html=1;fontSize=18;fillColor=#d5e8d4;gradientColor=#97d077;strokeColor=#82b366;" vertex="1" parent="1">
          <mxGeometry x="650" y="645" width="160" height="90" as="geometry" />
        </mxCell>
        <mxCell id="GIicMz4sCmZAJAu6LZuT-26" style="edgeStyle=orthogonalEdgeStyle;rounded=0;orthogonalLoop=1;jettySize=auto;html=1;exitX=0;exitY=0.5;exitDx=0;exitDy=0;entryX=0.5;entryY=1;entryDx=0;entryDy=0;fontSize=18;" edge="1" parent="1" source="GIicMz4sCmZAJAu6LZuT-24" target="GIicMz4sCmZAJAu6LZuT-18">
          <mxGeometry relative="1" as="geometry" />
        </mxCell>
        <mxCell id="GIicMz4sCmZAJAu6LZuT-24" value="Send&amp;nbsp; Command to ESP Serial Terminal" style="rounded=1;whiteSpace=wrap;html=1;fontSize=18;fillColor=#d5e8d4;gradientColor=#97d077;strokeColor=#82b366;" vertex="1" parent="1">
          <mxGeometry x="650" y="800" width="160" height="90" as="geometry" />
        </mxCell>
        <mxCell id="GIicMz4sCmZAJAu6LZuT-29" style="edgeStyle=orthogonalEdgeStyle;rounded=0;orthogonalLoop=1;jettySize=auto;html=1;exitX=1;exitY=0.5;exitDx=0;exitDy=0;entryX=0.5;entryY=1;entryDx=0;entryDy=0;fontSize=18;" edge="1" parent="1" source="GIicMz4sCmZAJAu6LZuT-27" target="GIicMz4sCmZAJAu6LZuT-9">
          <mxGeometry relative="1" as="geometry" />
        </mxCell>
        <mxCell id="GIicMz4sCmZAJAu6LZuT-27" value="Init handler for &quot;gcode_feeder&quot; stream" style="rounded=1;whiteSpace=wrap;html=1;fontSize=18;fillColor=#dae8fc;gradientColor=#7ea6e0;strokeColor=#6c8ebf;" vertex="1" parent="1">
          <mxGeometry x="370" y="485" width="170" height="100" as="geometry" />
        </mxCell>
        <mxCell id="GIicMz4sCmZAJAu6LZuT-32" style="edgeStyle=orthogonalEdgeStyle;rounded=0;orthogonalLoop=1;jettySize=auto;html=1;exitX=1;exitY=0.5;exitDx=0;exitDy=0;entryX=0;entryY=0.5;entryDx=0;entryDy=0;fontSize=18;" edge="1" parent="1" source="GIicMz4sCmZAJAu6LZuT-30" target="GIicMz4sCmZAJAu6LZuT-31">
          <mxGeometry relative="1" as="geometry" />
        </mxCell>
        <mxCell id="GIicMz4sCmZAJAu6LZuT-30" value="Init gcode_handler() " style="rounded=1;whiteSpace=wrap;html=1;fontSize=18;fillColor=#d5e8d4;gradientColor=#97d077;strokeColor=#82b366;" vertex="1" parent="1">
          <mxGeometry x="50" y="930" width="160" height="60" as="geometry" />
        </mxCell>
        <mxCell id="GIicMz4sCmZAJAu6LZuT-34" style="edgeStyle=orthogonalEdgeStyle;rounded=0;orthogonalLoop=1;jettySize=auto;html=1;exitX=1;exitY=0.5;exitDx=0;exitDy=0;entryX=0;entryY=0.5;entryDx=0;entryDy=0;fontSize=18;" edge="1" parent="1" source="GIicMz4sCmZAJAu6LZuT-31" target="GIicMz4sCmZAJAu6LZuT-33">
          <mxGeometry relative="1" as="geometry" />
        </mxCell>
        <mxCell id="GIicMz4sCmZAJAu6LZuT-31" value="Parse Gcode from stream" style="rounded=1;whiteSpace=wrap;html=1;fontSize=18;fillColor=#d5e8d4;gradientColor=#97d077;strokeColor=#82b366;" vertex="1" parent="1">
          <mxGeometry x="270" y="915" width="160" height="90" as="geometry" />
        </mxCell>
        <mxCell id="GIicMz4sCmZAJAu6LZuT-36" style="edgeStyle=orthogonalEdgeStyle;rounded=0;orthogonalLoop=1;jettySize=auto;html=1;exitX=0.5;exitY=1;exitDx=0;exitDy=0;entryX=0.5;entryY=0;entryDx=0;entryDy=0;fontSize=18;" edge="1" parent="1" source="GIicMz4sCmZAJAu6LZuT-33" target="GIicMz4sCmZAJAu6LZuT-35">
          <mxGeometry relative="1" as="geometry" />
        </mxCell>
        <mxCell id="GIicMz4sCmZAJAu6LZuT-33" value="Put in Serial Buffer" style="rounded=1;whiteSpace=wrap;html=1;fontSize=18;fillColor=#d5e8d4;gradientColor=#97d077;strokeColor=#82b366;" vertex="1" parent="1">
          <mxGeometry x="490" y="915" width="160" height="90" as="geometry" />
        </mxCell>
        <mxCell id="GIicMz4sCmZAJAu6LZuT-37" style="edgeStyle=orthogonalEdgeStyle;rounded=0;orthogonalLoop=1;jettySize=auto;html=1;exitX=0;exitY=0.5;exitDx=0;exitDy=0;entryX=0.5;entryY=1;entryDx=0;entryDy=0;fontSize=18;" edge="1" parent="1" source="GIicMz4sCmZAJAu6LZuT-35" target="GIicMz4sCmZAJAu6LZuT-31">
          <mxGeometry relative="1" as="geometry" />
        </mxCell>
        <mxCell id="GIicMz4sCmZAJAu6LZuT-35" value="Read Status and update Machine Class" style="rounded=1;whiteSpace=wrap;html=1;fontSize=18;fillColor=#d5e8d4;gradientColor=#97d077;strokeColor=#82b366;" vertex="1" parent="1">
          <mxGeometry x="490" y="1030" width="160" height="90" as="geometry" />
        </mxCell>
      </root>
    </mxGraphModel>
  </diagram>
  <diagram id="EnJ13aC3PNFj5qQR-4Yi" name="Ruby Web UI">
    <mxGraphModel dx="2062" dy="780" grid="1" gridSize="10" guides="1" tooltips="1" connect="1" arrows="1" fold="1" page="1" pageScale="1" pageWidth="850" pageHeight="1100" math="0" shadow="0">
      <root>
        <mxCell id="0" />
        <mxCell id="1" parent="0" />
        <mxCell id="uVHy9OdmD0yxwRR3q8am-6" value="" style="group" vertex="1" connectable="0" parent="1">
          <mxGeometry x="60" y="120" width="260" height="260" as="geometry" />
        </mxCell>
        <mxCell id="uVHy9OdmD0yxwRR3q8am-1" value="" style="whiteSpace=wrap;html=1;aspect=fixed;fillColor=#d5e8d4;gradientColor=#97d077;strokeColor=#82b366;" vertex="1" parent="uVHy9OdmD0yxwRR3q8am-6">
          <mxGeometry width="260" height="260" as="geometry" />
        </mxCell>
        <mxCell id="uVHy9OdmD0yxwRR3q8am-2" value="&lt;font style=&quot;font-size: 18px;&quot;&gt;Analyses&lt;/font&gt;" style="text;html=1;strokeColor=none;fillColor=none;align=center;verticalAlign=middle;whiteSpace=wrap;rounded=0;" vertex="1" parent="uVHy9OdmD0yxwRR3q8am-6">
          <mxGeometry x="30" y="20" width="120" height="30" as="geometry" />
        </mxCell>
        <mxCell id="uVHy9OdmD0yxwRR3q8am-3" value="New Analysis Builder Grid" style="rounded=1;whiteSpace=wrap;html=1;fontSize=18;fillColor=#fff2cc;gradientColor=#ffd966;strokeColor=#d6b656;" vertex="1" parent="uVHy9OdmD0yxwRR3q8am-6">
          <mxGeometry x="45" y="70" width="170" height="80" as="geometry" />
        </mxCell>
        <mxCell id="uVHy9OdmD0yxwRR3q8am-4" value="Edit Analysis Grid " style="rounded=1;whiteSpace=wrap;html=1;fontSize=18;fillColor=#fff2cc;gradientColor=#ffd966;strokeColor=#d6b656;" vertex="1" parent="uVHy9OdmD0yxwRR3q8am-6">
          <mxGeometry x="45" y="160" width="170" height="80" as="geometry" />
        </mxCell>
        <mxCell id="uVHy9OdmD0yxwRR3q8am-7" value="" style="group" vertex="1" connectable="0" parent="1">
          <mxGeometry x="390" y="120" width="260" height="260" as="geometry" />
        </mxCell>
        <mxCell id="uVHy9OdmD0yxwRR3q8am-8" value="" style="whiteSpace=wrap;html=1;aspect=fixed;fillColor=#d5e8d4;gradientColor=#97d077;strokeColor=#82b366;" vertex="1" parent="uVHy9OdmD0yxwRR3q8am-7">
          <mxGeometry width="260" height="260" as="geometry" />
        </mxCell>
        <mxCell id="uVHy9OdmD0yxwRR3q8am-9" value="&lt;font style=&quot;font-size: 18px;&quot;&gt;Dashboard&lt;/font&gt;" style="text;html=1;strokeColor=none;fillColor=none;align=center;verticalAlign=middle;whiteSpace=wrap;rounded=0;" vertex="1" parent="uVHy9OdmD0yxwRR3q8am-7">
          <mxGeometry x="30" y="20" width="120" height="30" as="geometry" />
        </mxCell>
        <mxCell id="uVHy9OdmD0yxwRR3q8am-10" value="Machine Status" style="rounded=1;whiteSpace=wrap;html=1;fontSize=18;fillColor=#fff2cc;gradientColor=#ffd966;strokeColor=#d6b656;" vertex="1" parent="uVHy9OdmD0yxwRR3q8am-7">
          <mxGeometry x="45" y="70" width="170" height="80" as="geometry" />
        </mxCell>
        <mxCell id="uVHy9OdmD0yxwRR3q8am-11" value="Manual Gcode Controls" style="rounded=1;whiteSpace=wrap;html=1;fontSize=18;fillColor=#fff2cc;gradientColor=#ffd966;strokeColor=#d6b656;" vertex="1" parent="uVHy9OdmD0yxwRR3q8am-7">
          <mxGeometry x="45" y="160" width="170" height="80" as="geometry" />
        </mxCell>
        <mxCell id="uVHy9OdmD0yxwRR3q8am-12" value="" style="group" vertex="1" connectable="0" parent="1">
          <mxGeometry x="390" y="420" width="260" height="260" as="geometry" />
        </mxCell>
        <mxCell id="uVHy9OdmD0yxwRR3q8am-13" value="" style="whiteSpace=wrap;html=1;aspect=fixed;fillColor=#d5e8d4;gradientColor=#97d077;strokeColor=#82b366;" vertex="1" parent="uVHy9OdmD0yxwRR3q8am-12">
          <mxGeometry width="260" height="260" as="geometry" />
        </mxCell>
        <mxCell id="uVHy9OdmD0yxwRR3q8am-14" value="&lt;font style=&quot;font-size: 18px;&quot;&gt;Programs&lt;/font&gt;" style="text;html=1;strokeColor=none;fillColor=none;align=center;verticalAlign=middle;whiteSpace=wrap;rounded=0;" vertex="1" parent="uVHy9OdmD0yxwRR3q8am-12">
          <mxGeometry x="30" y="20" width="120" height="30" as="geometry" />
        </mxCell>
        <mxCell id="uVHy9OdmD0yxwRR3q8am-15" value="New Program Editor" style="rounded=1;whiteSpace=wrap;html=1;fontSize=18;fillColor=#fff2cc;gradientColor=#ffd966;strokeColor=#d6b656;" vertex="1" parent="uVHy9OdmD0yxwRR3q8am-12">
          <mxGeometry x="45" y="70" width="170" height="80" as="geometry" />
        </mxCell>
        <mxCell id="uVHy9OdmD0yxwRR3q8am-16" value="Run/Delete Program" style="rounded=1;whiteSpace=wrap;html=1;fontSize=18;fillColor=#fff2cc;gradientColor=#ffd966;strokeColor=#d6b656;" vertex="1" parent="uVHy9OdmD0yxwRR3q8am-12">
          <mxGeometry x="45" y="160" width="170" height="80" as="geometry" />
        </mxCell>
        <mxCell id="uVHy9OdmD0yxwRR3q8am-17" value="" style="group" vertex="1" connectable="0" parent="1">
          <mxGeometry x="60" y="420" width="260" height="260" as="geometry" />
        </mxCell>
        <mxCell id="uVHy9OdmD0yxwRR3q8am-18" value="" style="whiteSpace=wrap;html=1;aspect=fixed;fillColor=#d5e8d4;gradientColor=#97d077;strokeColor=#82b366;" vertex="1" parent="uVHy9OdmD0yxwRR3q8am-17">
          <mxGeometry width="260" height="260" as="geometry" />
        </mxCell>
        <mxCell id="uVHy9OdmD0yxwRR3q8am-19" value="&lt;font style=&quot;font-size: 18px;&quot;&gt;Machine Settings&lt;/font&gt;" style="text;html=1;strokeColor=none;fillColor=none;align=center;verticalAlign=middle;whiteSpace=wrap;rounded=0;" vertex="1" parent="uVHy9OdmD0yxwRR3q8am-17">
          <mxGeometry x="30" y="20" width="160" height="30" as="geometry" />
        </mxCell>
        <mxCell id="uVHy9OdmD0yxwRR3q8am-20" value="Edit Settings" style="rounded=1;whiteSpace=wrap;html=1;fontSize=18;fillColor=#fff2cc;gradientColor=#ffd966;strokeColor=#d6b656;" vertex="1" parent="uVHy9OdmD0yxwRR3q8am-17">
          <mxGeometry x="45" y="70" width="170" height="80" as="geometry" />
        </mxCell>
      </root>
    </mxGraphModel>
  </diagram>
</mxfile>
